<svg width="193" height="48" viewBox="0 0 193 48" fill="none" xmlns="http://www.w3.org/2000/svg">
<g filter="url(#filter0_iii_3046_38728)">
<g clip-path="url(#clip0_3046_38728)">
<rect width="48" height="48" rx="12" fill="#DB2777"/>
<rect width="48" height="48" fill="url(#paint0_linear_3046_38728)"/>
<g filter="url(#filter1_d_3046_38728)">
<path d="M25.6029 11.2749C23.2598 8.93179 19.4608 8.93179 17.1176 11.2749L8.63236 19.7602C6.28921 22.1034 6.28921 25.9024 8.63236 28.2455L17.1176 36.7308C19.4608 39.0739 23.2598 39.0739 25.6029 36.7308L29.6516 32.6821C26.2812 31.3818 23.8901 28.1113 23.8901 24.2823C23.8901 20.3007 26.4755 16.9231 30.0591 15.7366C29.9891 15.6629 29.9179 15.5899 29.8456 15.5176L25.6029 11.2749Z" fill="url(#paint1_linear_3046_38728)"/>
<path opacity="0.7" d="M29.6523 32.6848C30.6571 33.0724 31.7489 33.2849 32.8904 33.2849C37.8609 33.2849 41.8904 29.2555 41.8904 24.2849C41.8904 19.3143 37.8609 15.2849 32.8904 15.2849C31.9015 15.2849 30.9499 15.4444 30.0599 15.739C34.5316 20.4401 34.4605 27.8767 29.8464 32.4907L29.6523 32.6848Z" fill="url(#paint2_linear_3046_38728)"/>
</g>
</g>
<rect x="1" y="1" width="46" height="46" rx="11" stroke="url(#paint3_linear_3046_38728)" stroke-width="2"/>
</g>
<path d="M74.607 33L73.149 28.842H65.616L64.131 33H60L67.29 13.614H71.772L79.008 33H74.607ZM69.423 18.096L66.777 25.575H72.015L69.423 18.096Z" fill="white"/>
<path d="M83.7457 33H79.9657V13.614H83.7457V33Z" fill="white"/>
<path d="M100.422 25.791C100.422 30.057 97.9112 33.27 94.0232 33.27C92.3222 33.27 90.8642 32.541 89.7842 31.137V38.211H86.0312V18.582H89.4872V20.688C90.5942 19.149 92.1872 18.312 94.0232 18.312C97.9112 18.312 100.422 21.552 100.422 25.791ZM96.5612 25.791C96.5612 23.091 95.0222 21.633 93.1862 21.633C91.3502 21.633 89.8112 23.064 89.8112 25.791C89.8112 28.518 91.3502 29.922 93.1862 29.922C95.0222 29.922 96.5612 28.545 96.5612 25.791Z" fill="white"/>
<path d="M105.5 25.143V33H101.747V13.614H105.5V20.472C106.499 19.149 107.741 18.312 109.631 18.312C112.52 18.312 114.518 20.202 114.518 23.685V33H110.792V24.954C110.792 22.821 109.955 21.633 108.254 21.633C106.769 21.633 105.5 22.821 105.5 25.143Z" fill="white"/>
<path d="M125.258 33V31.218C124.313 32.568 122.882 33.27 120.911 33.27C117.914 33.27 115.916 31.515 115.916 28.815C115.916 26.007 118.184 24.495 122.396 24.495C123.206 24.495 123.908 24.549 124.799 24.657V23.793C124.799 22.173 123.881 21.228 122.315 21.228C120.695 21.228 119.723 22.173 119.588 23.793H116.213C116.429 20.472 118.832 18.312 122.315 18.312C126.095 18.312 128.309 20.391 128.309 23.928V33H125.258ZM119.453 28.707C119.453 29.922 120.317 30.678 121.721 30.678C123.638 30.678 124.799 29.625 124.799 27.951V26.925C123.908 26.79 123.287 26.736 122.639 26.736C120.506 26.736 119.453 27.411 119.453 28.707Z" fill="white"/>
<path d="M144.157 33L140.539 19.446L136.921 33H132.763L127.795 13.614H131.791L134.923 26.763L138.487 13.614H142.672L146.128 26.817L149.287 13.614H153.31L148.315 33H144.157Z" fill="white"/>
<path d="M161.726 33V31.218C160.781 32.568 159.35 33.27 157.379 33.27C154.382 33.27 152.384 31.515 152.384 28.815C152.384 26.007 154.652 24.495 158.864 24.495C159.674 24.495 160.376 24.549 161.267 24.657V23.793C161.267 22.173 160.349 21.228 158.783 21.228C157.163 21.228 156.191 22.173 156.056 23.793H152.681C152.897 20.472 155.3 18.312 158.783 18.312C162.563 18.312 164.777 20.391 164.777 23.928V33H161.726ZM155.921 28.707C155.921 29.922 156.785 30.678 158.189 30.678C160.106 30.678 161.267 29.625 161.267 27.951V26.925C160.376 26.79 159.755 26.736 159.107 26.736C156.974 26.736 155.921 27.411 155.921 28.707Z" fill="white"/>
<path d="M179.417 18.582L174.125 33H170.021L164.702 18.582H168.752L172.181 28.734L175.637 18.582H179.417Z" fill="white"/>
<path d="M185.747 33.243C181.427 33.243 178.538 30.246 178.538 25.737C178.538 21.444 181.535 18.312 185.693 18.312C190.256 18.312 193.28 22.011 192.605 26.709H182.372C182.615 29.058 183.749 30.354 185.666 30.354C187.313 30.354 188.42 29.544 188.852 28.113H192.578C191.768 31.38 189.257 33.243 185.747 33.243ZM185.612 21.066C183.857 21.066 182.75 22.2 182.426 24.333H188.636C188.528 22.335 187.394 21.066 185.612 21.066Z" fill="white"/>
<defs>
<filter id="filter0_iii_3046_38728" x="0" y="-3" width="48" height="54" filterUnits="userSpaceOnUse" color-interpolation-filters="sRGB">
<feFlood flood-opacity="0" result="BackgroundImageFix"/>
<feBlend mode="normal" in="SourceGraphic" in2="BackgroundImageFix" result="shape"/>
<feColorMatrix in="SourceAlpha" type="matrix" values="0 0 0 0 0 0 0 0 0 0 0 0 0 0 0 0 0 0 127 0" result="hardAlpha"/>
<feOffset dy="-3"/>
<feGaussianBlur stdDeviation="1.5"/>
<feComposite in2="hardAlpha" operator="arithmetic" k2="-1" k3="1"/>
<feColorMatrix type="matrix" values="0 0 0 0 0 0 0 0 0 0 0 0 0 0 0 0 0 0 0.1 0"/>
<feBlend mode="normal" in2="shape" result="effect1_innerShadow_3046_38728"/>
<feColorMatrix in="SourceAlpha" type="matrix" values="0 0 0 0 0 0 0 0 0 0 0 0 0 0 0 0 0 0 127 0" result="hardAlpha"/>
<feOffset dy="3"/>
<feGaussianBlur stdDeviation="1.5"/>
<feComposite in2="hardAlpha" operator="arithmetic" k2="-1" k3="1"/>
<feColorMatrix type="matrix" values="0 0 0 0 1 0 0 0 0 1 0 0 0 0 1 0 0 0 0.1 0"/>
<feBlend mode="normal" in2="effect1_innerShadow_3046_38728" result="effect2_innerShadow_3046_38728"/>
<feColorMatrix in="SourceAlpha" type="matrix" values="0 0 0 0 0 0 0 0 0 0 0 0 0 0 0 0 0 0 127 0" result="hardAlpha"/>
<feMorphology radius="1" operator="erode" in="SourceAlpha" result="effect3_innerShadow_3046_38728"/>
<feOffset/>
<feComposite in2="hardAlpha" operator="arithmetic" k2="-1" k3="1"/>
<feColorMatrix type="matrix" values="0 0 0 0 0 0 0 0 0 0 0 0 0 0 0 0 0 0 0.2 0"/>
<feBlend mode="normal" in2="effect2_innerShadow_3046_38728" result="effect3_innerShadow_3046_38728"/>
</filter>
<filter id="filter1_d_3046_38728" x="3.875" y="5.25" width="41.25" height="42" filterUnits="userSpaceOnUse" color-interpolation-filters="sRGB">
<feFlood flood-opacity="0" result="BackgroundImageFix"/>
<feColorMatrix in="SourceAlpha" type="matrix" values="0 0 0 0 0 0 0 0 0 0 0 0 0 0 0 0 0 0 127 0" result="hardAlpha"/>
<feMorphology radius="1.5" operator="erode" in="SourceAlpha" result="effect1_dropShadow_3046_38728"/>
<feOffset dy="2.25"/>
<feGaussianBlur stdDeviation="2.25"/>
<feComposite in2="hardAlpha" operator="out"/>
<feColorMatrix type="matrix" values="0 0 0 0 0.141176 0 0 0 0 0.141176 0 0 0 0 0.141176 0 0 0 0.1 0"/>
<feBlend mode="normal" in2="BackgroundImageFix" result="effect1_dropShadow_3046_38728"/>
<feBlend mode="normal" in="SourceGraphic" in2="effect1_dropShadow_3046_38728" result="shape"/>
</filter>
<linearGradient id="paint0_linear_3046_38728" x1="24" y1="5.96047e-07" x2="26" y2="48" gradientUnits="userSpaceOnUse">
<stop stop-color="white" stop-opacity="0"/>
<stop offset="1" stop-color="white" stop-opacity="0.12"/>
</linearGradient>
<linearGradient id="paint1_linear_3046_38728" x1="18.4671" y1="9.51758" x2="18.4671" y2="38.4881" gradientUnits="userSpaceOnUse">
<stop stop-color="white" stop-opacity="0.8"/>
<stop offset="1" stop-color="white" stop-opacity="0.5"/>
</linearGradient>
<linearGradient id="paint2_linear_3046_38728" x1="35.7714" y1="15.2849" x2="35.7714" y2="33.2849" gradientUnits="userSpaceOnUse">
<stop stop-color="white" stop-opacity="0.8"/>
<stop offset="1" stop-color="white" stop-opacity="0.5"/>
</linearGradient>
<linearGradient id="paint3_linear_3046_38728" x1="24" y1="0" x2="24" y2="48" gradientUnits="userSpaceOnUse">
<stop stop-color="white" stop-opacity="0.12"/>
<stop offset="1" stop-color="white" stop-opacity="0"/>
</linearGradient>
<clipPath id="clip0_3046_38728">
<rect width="48" height="48" rx="12" fill="white"/>
</clipPath>
</defs>
</svg>
